<mxfile host="app.diagrams.net" modified="2023-09-09T04:06:17.906Z" agent="Mozilla/5.0 (Windows NT 10.0; Win64; x64) AppleWebKit/537.36 (KHTML, like Gecko) Chrome/116.0.0.0 Safari/537.36" etag="ciriclmThkLAfp5HzP95" version="21.7.4" type="github">
  <diagram id="R2lEEEUBdFMjLlhIrx00" name="Page-1">
    <mxGraphModel dx="1247" dy="680" grid="1" gridSize="10" guides="1" tooltips="1" connect="1" arrows="1" fold="1" page="1" pageScale="1" pageWidth="850" pageHeight="1100" math="0" shadow="0" extFonts="Permanent Marker^https://fonts.googleapis.com/css?family=Permanent+Marker">
      <root>
        <mxCell id="0" />
        <mxCell id="1" parent="0" />
        <mxCell id="zMPJVOXFCDG_Xqm11uyb-27" value="PHYSICIAN" style="rounded=0;whiteSpace=wrap;html=1;labelBackgroundColor=none;fillColor=#09555B;strokeColor=#BAC8D3;fontColor=#EEEEEE;" vertex="1" parent="1">
          <mxGeometry x="50" y="330" width="200" height="30" as="geometry" />
        </mxCell>
        <mxCell id="zMPJVOXFCDG_Xqm11uyb-39" value="SPECIALIST" style="swimlane;whiteSpace=wrap;html=1;startSize=30;labelBackgroundColor=none;fillColor=#09555B;strokeColor=#BAC8D3;fontColor=#EEEEEE;" vertex="1" parent="1">
          <mxGeometry x="320" y="560" width="200" height="120" as="geometry" />
        </mxCell>
        <mxCell id="zMPJVOXFCDG_Xqm11uyb-40" value="Text" style="text;html=1;align=center;verticalAlign=middle;resizable=0;points=[];autosize=1;strokeColor=none;fillColor=none;labelBackgroundColor=none;fontColor=#EEEEEE;" vertex="1" parent="zMPJVOXFCDG_Xqm11uyb-39">
          <mxGeometry y="30" width="50" height="30" as="geometry" />
        </mxCell>
        <mxCell id="zMPJVOXFCDG_Xqm11uyb-41" value="Doctor_id" style="rounded=0;whiteSpace=wrap;html=1;labelBackgroundColor=none;fillColor=#09555B;strokeColor=#BAC8D3;fontColor=#EEEEEE;" vertex="1" parent="zMPJVOXFCDG_Xqm11uyb-39">
          <mxGeometry y="30" width="200" height="30" as="geometry" />
        </mxCell>
        <mxCell id="zMPJVOXFCDG_Xqm11uyb-42" value="Name" style="rounded=0;whiteSpace=wrap;html=1;labelBackgroundColor=none;fillColor=#09555B;strokeColor=#BAC8D3;fontColor=#EEEEEE;" vertex="1" parent="zMPJVOXFCDG_Xqm11uyb-39">
          <mxGeometry y="60" width="200" height="30" as="geometry" />
        </mxCell>
        <mxCell id="zMPJVOXFCDG_Xqm11uyb-43" value="Speciality" style="rounded=0;whiteSpace=wrap;html=1;labelBackgroundColor=none;fillColor=#09555B;strokeColor=#BAC8D3;fontColor=#EEEEEE;" vertex="1" parent="zMPJVOXFCDG_Xqm11uyb-39">
          <mxGeometry y="90" width="200" height="30" as="geometry" />
        </mxCell>
        <mxCell id="zMPJVOXFCDG_Xqm11uyb-44" value="Contact" style="rounded=0;whiteSpace=wrap;html=1;labelBackgroundColor=none;fillColor=#09555B;strokeColor=#BAC8D3;fontColor=#EEEEEE;" vertex="1" parent="1">
          <mxGeometry x="320" y="680" width="200" height="30" as="geometry" />
        </mxCell>
        <mxCell id="zMPJVOXFCDG_Xqm11uyb-45" value="PATIENT" style="swimlane;whiteSpace=wrap;html=1;startSize=30;labelBackgroundColor=none;fillColor=#09555B;strokeColor=#BAC8D3;fontColor=#EEEEEE;" vertex="1" parent="1">
          <mxGeometry x="320" y="330" width="200" height="120" as="geometry" />
        </mxCell>
        <mxCell id="zMPJVOXFCDG_Xqm11uyb-46" value="Text" style="text;html=1;align=center;verticalAlign=middle;resizable=0;points=[];autosize=1;strokeColor=none;fillColor=none;labelBackgroundColor=none;fontColor=#EEEEEE;" vertex="1" parent="zMPJVOXFCDG_Xqm11uyb-45">
          <mxGeometry y="30" width="50" height="30" as="geometry" />
        </mxCell>
        <mxCell id="zMPJVOXFCDG_Xqm11uyb-47" value="Patient_id" style="rounded=0;whiteSpace=wrap;html=1;labelBackgroundColor=none;fillColor=#09555B;strokeColor=#BAC8D3;fontColor=#EEEEEE;" vertex="1" parent="zMPJVOXFCDG_Xqm11uyb-45">
          <mxGeometry y="30" width="200" height="30" as="geometry" />
        </mxCell>
        <mxCell id="zMPJVOXFCDG_Xqm11uyb-48" value="Name" style="rounded=0;whiteSpace=wrap;html=1;labelBackgroundColor=none;fillColor=#09555B;strokeColor=#BAC8D3;fontColor=#EEEEEE;" vertex="1" parent="zMPJVOXFCDG_Xqm11uyb-45">
          <mxGeometry y="60" width="200" height="30" as="geometry" />
        </mxCell>
        <mxCell id="zMPJVOXFCDG_Xqm11uyb-49" value="DOB" style="rounded=0;whiteSpace=wrap;html=1;labelBackgroundColor=none;fillColor=#09555B;strokeColor=#BAC8D3;fontColor=#EEEEEE;" vertex="1" parent="zMPJVOXFCDG_Xqm11uyb-45">
          <mxGeometry y="90" width="200" height="30" as="geometry" />
        </mxCell>
        <mxCell id="zMPJVOXFCDG_Xqm11uyb-110" style="edgeStyle=orthogonalEdgeStyle;rounded=0;orthogonalLoop=1;jettySize=auto;html=1;exitX=0;exitY=0.75;exitDx=0;exitDy=0;entryX=0;entryY=1;entryDx=0;entryDy=0;strokeColor=#457B9D;fontColor=#1D3557;fillColor=#A8DADC;" edge="1" parent="zMPJVOXFCDG_Xqm11uyb-45" source="zMPJVOXFCDG_Xqm11uyb-45" target="zMPJVOXFCDG_Xqm11uyb-47">
          <mxGeometry relative="1" as="geometry" />
        </mxCell>
        <mxCell id="zMPJVOXFCDG_Xqm11uyb-50" value="Contact" style="rounded=0;whiteSpace=wrap;html=1;labelBackgroundColor=none;fillColor=#09555B;strokeColor=#BAC8D3;fontColor=#EEEEEE;" vertex="1" parent="1">
          <mxGeometry x="320" y="450" width="200" height="30" as="geometry" />
        </mxCell>
        <mxCell id="zMPJVOXFCDG_Xqm11uyb-72" value="" style="fontSize=12;html=1;endArrow=ERzeroToMany;startArrow=ERmandOne;rounded=0;strokeColor=#0B4D6A;exitX=1;exitY=0.75;exitDx=0;exitDy=0;entryX=0;entryY=0.75;entryDx=0;entryDy=0;" edge="1" parent="1" source="zMPJVOXFCDG_Xqm11uyb-107" target="zMPJVOXFCDG_Xqm11uyb-47">
          <mxGeometry width="100" height="100" relative="1" as="geometry">
            <mxPoint x="240" y="125" as="sourcePoint" />
            <mxPoint x="320" y="413" as="targetPoint" />
          </mxGeometry>
        </mxCell>
        <mxCell id="zMPJVOXFCDG_Xqm11uyb-104" value="" style="fontSize=12;html=1;endArrow=ERoneToMany;startArrow=ERmandOne;rounded=0;strokeColor=#457B9D;fontColor=#1D3557;fillColor=#A8DADC;exitX=1;exitY=0;exitDx=0;exitDy=0;entryX=0;entryY=0;entryDx=0;entryDy=0;" edge="1" parent="1" source="zMPJVOXFCDG_Xqm11uyb-48" target="zMPJVOXFCDG_Xqm11uyb-113">
          <mxGeometry width="100" height="100" relative="1" as="geometry">
            <mxPoint x="560" y="420.0000000000001" as="sourcePoint" />
            <mxPoint x="560" y="330.0000000000001" as="targetPoint" />
          </mxGeometry>
        </mxCell>
        <mxCell id="zMPJVOXFCDG_Xqm11uyb-106" value="" style="fontSize=12;html=1;endArrow=ERzeroToMany;endFill=1;startArrow=ERzeroToMany;rounded=0;strokeColor=#457B9D;fontColor=#1D3557;fillColor=#A8DADC;entryX=0.5;entryY=1;entryDx=0;entryDy=0;" edge="1" parent="1" source="zMPJVOXFCDG_Xqm11uyb-39" target="zMPJVOXFCDG_Xqm11uyb-50">
          <mxGeometry width="100" height="100" relative="1" as="geometry">
            <mxPoint x="300" y="390" as="sourcePoint" />
            <mxPoint x="400" y="290" as="targetPoint" />
          </mxGeometry>
        </mxCell>
        <mxCell id="zMPJVOXFCDG_Xqm11uyb-107" value="Physician_id" style="rounded=0;whiteSpace=wrap;html=1;labelBackgroundColor=none;fillColor=#09555B;strokeColor=#BAC8D3;fontColor=#EEEEEE;" vertex="1" parent="1">
          <mxGeometry x="50" y="360" width="200" height="30" as="geometry" />
        </mxCell>
        <mxCell id="zMPJVOXFCDG_Xqm11uyb-108" value="Name" style="rounded=0;whiteSpace=wrap;html=1;labelBackgroundColor=none;fillColor=#09555B;strokeColor=#BAC8D3;fontColor=#EEEEEE;" vertex="1" parent="1">
          <mxGeometry x="50" y="390" width="200" height="30" as="geometry" />
        </mxCell>
        <mxCell id="zMPJVOXFCDG_Xqm11uyb-109" value="Patient_id" style="rounded=0;whiteSpace=wrap;html=1;labelBackgroundColor=none;fillColor=#09555B;strokeColor=#BAC8D3;fontColor=#EEEEEE;" vertex="1" parent="1">
          <mxGeometry x="50" y="420" width="200" height="30" as="geometry" />
        </mxCell>
        <mxCell id="zMPJVOXFCDG_Xqm11uyb-111" value="&lt;b&gt;Appointment&lt;/b&gt;" style="rounded=0;whiteSpace=wrap;html=1;labelBackgroundColor=none;fillColor=#09555B;strokeColor=#BAC8D3;fontColor=#EEEEEE;" vertex="1" parent="1">
          <mxGeometry x="600" y="330" width="200" height="30" as="geometry" />
        </mxCell>
        <mxCell id="zMPJVOXFCDG_Xqm11uyb-112" value="Patient_ID" style="rounded=0;whiteSpace=wrap;html=1;labelBackgroundColor=none;fillColor=#09555B;strokeColor=#BAC8D3;fontColor=#EEEEEE;" vertex="1" parent="1">
          <mxGeometry x="600" y="360" width="200" height="30" as="geometry" />
        </mxCell>
        <mxCell id="zMPJVOXFCDG_Xqm11uyb-113" value="Time" style="rounded=0;whiteSpace=wrap;html=1;labelBackgroundColor=none;fillColor=#09555B;strokeColor=#BAC8D3;fontColor=#EEEEEE;" vertex="1" parent="1">
          <mxGeometry x="600" y="390" width="200" height="30" as="geometry" />
        </mxCell>
        <mxCell id="zMPJVOXFCDG_Xqm11uyb-115" value="Notes" style="rounded=0;whiteSpace=wrap;html=1;labelBackgroundColor=none;fillColor=#09555B;strokeColor=#BAC8D3;fontColor=#EEEEEE;" vertex="1" parent="1">
          <mxGeometry x="600" y="420" width="200" height="30" as="geometry" />
        </mxCell>
        <mxCell id="zMPJVOXFCDG_Xqm11uyb-116" value="Special_Checkup" style="swimlane;whiteSpace=wrap;html=1;startSize=30;labelBackgroundColor=none;fillColor=#09555B;strokeColor=#BAC8D3;fontColor=#EEEEEE;" vertex="1" parent="1">
          <mxGeometry x="610" y="560" width="200" height="120" as="geometry" />
        </mxCell>
        <mxCell id="zMPJVOXFCDG_Xqm11uyb-117" value="Text" style="text;html=1;align=center;verticalAlign=middle;resizable=0;points=[];autosize=1;strokeColor=none;fillColor=none;labelBackgroundColor=none;fontColor=#EEEEEE;" vertex="1" parent="zMPJVOXFCDG_Xqm11uyb-116">
          <mxGeometry y="30" width="50" height="30" as="geometry" />
        </mxCell>
        <mxCell id="zMPJVOXFCDG_Xqm11uyb-118" value="Patient_id" style="rounded=0;whiteSpace=wrap;html=1;labelBackgroundColor=none;fillColor=#09555B;strokeColor=#BAC8D3;fontColor=#EEEEEE;" vertex="1" parent="zMPJVOXFCDG_Xqm11uyb-116">
          <mxGeometry y="30" width="200" height="30" as="geometry" />
        </mxCell>
        <mxCell id="zMPJVOXFCDG_Xqm11uyb-119" value="Doctor_Id" style="rounded=0;whiteSpace=wrap;html=1;labelBackgroundColor=none;fillColor=#09555B;strokeColor=#BAC8D3;fontColor=#EEEEEE;" vertex="1" parent="zMPJVOXFCDG_Xqm11uyb-116">
          <mxGeometry y="60" width="200" height="30" as="geometry" />
        </mxCell>
        <mxCell id="zMPJVOXFCDG_Xqm11uyb-120" value="Treatment" style="rounded=0;whiteSpace=wrap;html=1;labelBackgroundColor=none;fillColor=#09555B;strokeColor=#BAC8D3;fontColor=#EEEEEE;" vertex="1" parent="zMPJVOXFCDG_Xqm11uyb-116">
          <mxGeometry y="90" width="200" height="30" as="geometry" />
        </mxCell>
        <mxCell id="zMPJVOXFCDG_Xqm11uyb-121" style="edgeStyle=orthogonalEdgeStyle;rounded=0;orthogonalLoop=1;jettySize=auto;html=1;exitX=0;exitY=0.75;exitDx=0;exitDy=0;entryX=0;entryY=1;entryDx=0;entryDy=0;strokeColor=#457B9D;fontColor=#1D3557;fillColor=#A8DADC;" edge="1" parent="zMPJVOXFCDG_Xqm11uyb-116" source="zMPJVOXFCDG_Xqm11uyb-116" target="zMPJVOXFCDG_Xqm11uyb-118">
          <mxGeometry relative="1" as="geometry" />
        </mxCell>
        <mxCell id="zMPJVOXFCDG_Xqm11uyb-122" value="Date" style="rounded=0;whiteSpace=wrap;html=1;labelBackgroundColor=none;fillColor=#09555B;strokeColor=#BAC8D3;fontColor=#EEEEEE;" vertex="1" parent="1">
          <mxGeometry x="610" y="680" width="200" height="30" as="geometry" />
        </mxCell>
        <mxCell id="zMPJVOXFCDG_Xqm11uyb-123" value="Treatment" style="swimlane;whiteSpace=wrap;html=1;startSize=30;labelBackgroundColor=none;fillColor=#09555B;strokeColor=#BAC8D3;fontColor=#EEEEEE;" vertex="1" parent="1">
          <mxGeometry x="610" y="770" width="200" height="120" as="geometry" />
        </mxCell>
        <mxCell id="zMPJVOXFCDG_Xqm11uyb-124" value="Text" style="text;html=1;align=center;verticalAlign=middle;resizable=0;points=[];autosize=1;strokeColor=none;fillColor=none;labelBackgroundColor=none;fontColor=#EEEEEE;" vertex="1" parent="zMPJVOXFCDG_Xqm11uyb-123">
          <mxGeometry y="30" width="50" height="30" as="geometry" />
        </mxCell>
        <mxCell id="zMPJVOXFCDG_Xqm11uyb-125" value="Treatment_ID" style="rounded=0;whiteSpace=wrap;html=1;labelBackgroundColor=none;fillColor=#09555B;strokeColor=#BAC8D3;fontColor=#EEEEEE;" vertex="1" parent="zMPJVOXFCDG_Xqm11uyb-123">
          <mxGeometry y="30" width="200" height="30" as="geometry" />
        </mxCell>
        <mxCell id="zMPJVOXFCDG_Xqm11uyb-126" value="Prescription" style="rounded=0;whiteSpace=wrap;html=1;labelBackgroundColor=none;fillColor=#09555B;strokeColor=#BAC8D3;fontColor=#EEEEEE;" vertex="1" parent="zMPJVOXFCDG_Xqm11uyb-123">
          <mxGeometry y="60" width="200" height="30" as="geometry" />
        </mxCell>
        <mxCell id="zMPJVOXFCDG_Xqm11uyb-127" value="Equipment_ID" style="rounded=0;whiteSpace=wrap;html=1;labelBackgroundColor=none;fillColor=#09555B;strokeColor=#BAC8D3;fontColor=#EEEEEE;" vertex="1" parent="zMPJVOXFCDG_Xqm11uyb-123">
          <mxGeometry y="90" width="200" height="30" as="geometry" />
        </mxCell>
        <mxCell id="zMPJVOXFCDG_Xqm11uyb-128" style="edgeStyle=orthogonalEdgeStyle;rounded=0;orthogonalLoop=1;jettySize=auto;html=1;exitX=0;exitY=0.75;exitDx=0;exitDy=0;entryX=0;entryY=1;entryDx=0;entryDy=0;strokeColor=#457B9D;fontColor=#1D3557;fillColor=#A8DADC;" edge="1" parent="zMPJVOXFCDG_Xqm11uyb-123" source="zMPJVOXFCDG_Xqm11uyb-123" target="zMPJVOXFCDG_Xqm11uyb-125">
          <mxGeometry relative="1" as="geometry" />
        </mxCell>
        <mxCell id="zMPJVOXFCDG_Xqm11uyb-130" value="Equipment" style="swimlane;whiteSpace=wrap;html=1;startSize=30;labelBackgroundColor=none;fillColor=#09555B;strokeColor=#BAC8D3;fontColor=#EEEEEE;" vertex="1" parent="1">
          <mxGeometry x="320" y="770" width="200" height="120" as="geometry" />
        </mxCell>
        <mxCell id="zMPJVOXFCDG_Xqm11uyb-131" value="Text" style="text;html=1;align=center;verticalAlign=middle;resizable=0;points=[];autosize=1;strokeColor=none;fillColor=none;labelBackgroundColor=none;fontColor=#EEEEEE;" vertex="1" parent="zMPJVOXFCDG_Xqm11uyb-130">
          <mxGeometry y="30" width="50" height="30" as="geometry" />
        </mxCell>
        <mxCell id="zMPJVOXFCDG_Xqm11uyb-132" value="Equipment_ID" style="rounded=0;whiteSpace=wrap;html=1;labelBackgroundColor=none;fillColor=#09555B;strokeColor=#BAC8D3;fontColor=#EEEEEE;" vertex="1" parent="zMPJVOXFCDG_Xqm11uyb-130">
          <mxGeometry y="30" width="200" height="30" as="geometry" />
        </mxCell>
        <mxCell id="zMPJVOXFCDG_Xqm11uyb-133" value="Name" style="rounded=0;whiteSpace=wrap;html=1;labelBackgroundColor=none;fillColor=#09555B;strokeColor=#BAC8D3;fontColor=#EEEEEE;" vertex="1" parent="zMPJVOXFCDG_Xqm11uyb-130">
          <mxGeometry y="60" width="200" height="30" as="geometry" />
        </mxCell>
        <mxCell id="zMPJVOXFCDG_Xqm11uyb-134" value="Used_For" style="rounded=0;whiteSpace=wrap;html=1;labelBackgroundColor=none;fillColor=#09555B;strokeColor=#BAC8D3;fontColor=#EEEEEE;" vertex="1" parent="zMPJVOXFCDG_Xqm11uyb-130">
          <mxGeometry y="90" width="200" height="30" as="geometry" />
        </mxCell>
        <mxCell id="zMPJVOXFCDG_Xqm11uyb-135" style="edgeStyle=orthogonalEdgeStyle;rounded=0;orthogonalLoop=1;jettySize=auto;html=1;exitX=0;exitY=0.75;exitDx=0;exitDy=0;entryX=0;entryY=1;entryDx=0;entryDy=0;strokeColor=#457B9D;fontColor=#1D3557;fillColor=#A8DADC;" edge="1" parent="zMPJVOXFCDG_Xqm11uyb-130" source="zMPJVOXFCDG_Xqm11uyb-130" target="zMPJVOXFCDG_Xqm11uyb-132">
          <mxGeometry relative="1" as="geometry" />
        </mxCell>
        <mxCell id="zMPJVOXFCDG_Xqm11uyb-137" value="" style="fontSize=12;html=1;endArrow=ERzeroToMany;startArrow=ERmandOne;rounded=0;strokeColor=#0B4D6A;exitX=1;exitY=0.75;exitDx=0;exitDy=0;entryX=0;entryY=0.75;entryDx=0;entryDy=0;" edge="1" parent="1" source="zMPJVOXFCDG_Xqm11uyb-41" target="zMPJVOXFCDG_Xqm11uyb-118">
          <mxGeometry width="100" height="100" relative="1" as="geometry">
            <mxPoint x="530" y="630" as="sourcePoint" />
            <mxPoint x="610" y="630" as="targetPoint" />
          </mxGeometry>
        </mxCell>
        <mxCell id="zMPJVOXFCDG_Xqm11uyb-138" value="" style="fontSize=12;html=1;endArrow=ERzeroToMany;endFill=1;startArrow=ERzeroToMany;rounded=0;strokeColor=#457B9D;fontColor=#1D3557;fillColor=#A8DADC;entryX=0.5;entryY=1;entryDx=0;entryDy=0;" edge="1" parent="1" target="zMPJVOXFCDG_Xqm11uyb-122">
          <mxGeometry width="100" height="100" relative="1" as="geometry">
            <mxPoint x="709.57" y="770" as="sourcePoint" />
            <mxPoint x="710" y="720" as="targetPoint" />
          </mxGeometry>
        </mxCell>
        <mxCell id="zMPJVOXFCDG_Xqm11uyb-139" value="" style="fontSize=12;html=1;endArrow=ERzeroToMany;endFill=1;startArrow=ERzeroToMany;rounded=0;strokeColor=#457B9D;fontColor=#1D3557;fillColor=#A8DADC;entryX=1;entryY=0.5;entryDx=0;entryDy=0;exitX=-0.044;exitY=1.014;exitDx=0;exitDy=0;exitPerimeter=0;" edge="1" parent="1" source="zMPJVOXFCDG_Xqm11uyb-124" target="zMPJVOXFCDG_Xqm11uyb-130">
          <mxGeometry width="100" height="100" relative="1" as="geometry">
            <mxPoint x="580" y="870" as="sourcePoint" />
            <mxPoint x="580" y="790" as="targetPoint" />
          </mxGeometry>
        </mxCell>
      </root>
    </mxGraphModel>
  </diagram>
</mxfile>
